<svg xmlns:dc="http://purl.org/dc/elements/1.1/" xmlns:cc="http://creativecommons.org/ns#" xmlns:rdf="http://www.w3.org/1999/02/22-rdf-syntax-ns#" xmlns:svg="http://www.w3.org/2000/svg" xmlns="http://www.w3.org/2000/svg" xmlns:sodipodi="http://sodipodi.sourceforge.net/DTD/sodipodi-0.dtd" xmlns:inkscape="http://www.inkscape.org/namespaces/inkscape" xml:space="preserve" version="1.1" style="shape-rendering:geometricPrecision;text-rendering:geometricPrecision;image-rendering:optimizeQuality;" viewBox="0 0 2540 2540" x="0px" y="0px" fill-rule="evenodd" clip-rule="evenodd"><defs><style type="text/css">
   
    .fil0 {fill:white}
    .fil1 {fill:black;fill-rule:nonzero}
   
  </style></defs><path style="" d="m 958,988 0,-421 -671,0 c -28,0 -51,-23 -51,-51 l 0,-337 c 0,-28 23,-51 51,-51 l 721,0 c 28,0 51,23 51,51 l 0,809 304,665 223,-382 c 20,-33 69,-34 88,0 l 623,1065 c 19,34 -5,76 -44,76 l 0,0 -1867,0 c -36,0 -65,-37 -45,-76 L 958,988 z m 0,-523 0,-236 -620,0 0,236 620,0 z m 316,1236 -266,-580 -544,1190 1701,0 -535,-914 -229,391 c -20,35 -72,34 -90,-4 l -37,-83 z" class="fil1" fill="#000000" fill-rule="nonzero"></path></svg>