<svg xmlns:dc="http://purl.org/dc/elements/1.1/" xmlns:cc="http://creativecommons.org/ns#" xmlns:rdf="http://www.w3.org/1999/02/22-rdf-syntax-ns#" xmlns:svg="http://www.w3.org/2000/svg" xmlns="http://www.w3.org/2000/svg" xmlns:sodipodi="http://sodipodi.sourceforge.net/DTD/sodipodi-0.dtd" xmlns:inkscape="http://www.inkscape.org/namespaces/inkscape" version="1.1" x="0px" y="0px" viewBox="0 0 100 100"><g transform="translate(0,-952.36218)"><path style="font-size:medium;font-style:normal;font-variant:normal;font-weight:normal;font-stretch:normal;text-indent:0;text-align:start;text-decoration:none;line-height:normal;letter-spacing:normal;word-spacing:normal;text-transform:none;direction:ltr;block-progression:tb;writing-mode:lr-tb;text-anchor:start;baseline-shift:baseline;opacity:1;color:#000000;fill:#000000;fill-opacity:1;stroke:none;stroke-width:3.57142806000000010;marker:none;visibility:visible;display:inline;overflow:visible;enable-background:accumulate;font-family:Sans;-inkscape-font-specification:Sans" d="M 50 6 C 25.72316 6 6 25.72314 6 50 C 6 74.2768 25.72316 94 50 94 C 74.27684 94 94 74.2768 94 50 C 94 25.72314 74.27684 6 50 6 z M 50 10 C 72.11508 10 90 27.8849 90 50 C 90 72.1151 72.11508 90 50 90 C 27.88492 90 10 72.1151 10 50 C 10 27.8849 27.88492 10 50 10 z M 50 15 C 30.693722 15 15 30.69372 15 50 C 15 69.3063 30.693722 85 50 85 C 69.306277 85 85 69.3063 85 50 C 85 30.69372 69.306277 15 50 15 z M 48 19.09375 L 48 22 A 2.0001998 2.0001998 0 1 0 52 22 L 52 19.09375 C 67.546278 20.079918 79.920082 32.453719 80.90625 48 L 78 48 A 2.0001998 2.0001998 0 0 0 77.8125 48 A 2.0021961 2.0021961 0 1 0 78 52 L 80.90625 52 C 79.920082 67.546266 67.546278 79.920081 52 80.90625 L 52 78 A 2.0001998 2.0001998 0 0 0 49.78125 75.96875 A 2.0001998 2.0001998 0 0 0 48 78 L 48 80.90625 C 32.453721 79.920081 20.079918 67.546266 19.09375 52 L 22 52 A 2.0001998 2.0001998 0 1 0 22 48 L 19.09375 48 C 20.079918 32.453719 32.453721 20.079918 48 19.09375 z M 49.78125 31.96875 A 2.0001998 2.0001998 0 0 0 48 34 L 48 50 A 2.0001998 2.0001998 0 0 0 50 52 L 62 52 A 2.0001998 2.0001998 0 1 0 62 48 L 52 48 L 52 34 A 2.0001998 2.0001998 0 0 0 49.78125 31.96875 z " transform="translate(0,952.36218)"></path></g></svg>