<svg xmlns="http://www.w3.org/2000/svg" xmlns:xlink="http://www.w3.org/1999/xlink" version="1.1" x="0px" y="0px" viewBox="0 0 67 67" enable-background="new 0 0 67 67" xml:space="preserve"><g><path fill="#000000" d="M31.312,15.58c1.69-1.819,1.596-4.662-0.221-6.358c-1.819-1.691-4.66-1.591-6.354,0.223   c-1.69,1.818-1.59,4.658,0.226,6.352C26.776,17.489,29.622,17.396,31.312,15.58z"></path><path fill="#000000" d="M40.127,17.175l-6.607,2.9l-7.97-2.188c-0.339-0.282-0.704-0.509-1.096-0.617   c-1.826-0.506-3.705,0.5-4.187,2.238l-4.204,15.205c-0.105,0.384-0.124,0.771-0.087,1.146c-0.067,0.338-0.07,0.694,0.013,1.051   l2.391,10.724l-3.819,7.683c-0.764,1.107-0.484,2.586,0.624,3.297c1.111,0.719,2.632,0.402,3.393-0.701l4.504-9.076   c0.559-0.805,0.558-1.802,0.095-2.563l-1.767-7.955c0.104-0.07,0.206-0.14,0.301-0.222l7.524-1.704l-1.779,5.662   c-0.581,1.213-0.076,2.631,1.13,3.16c1.21,0.535,2.665-0.018,3.242-1.225l3.032-9.669c0.127-0.264,0.193-0.537,0.221-0.81   c0.002-0.006,0.002-0.012,0.003-0.018c0.006-0.056,0.012-0.109,0.013-0.164c0.028-0.266,0.025-0.537-0.036-0.812   c-0.307-1.343-1.635-2.187-2.98-1.876l-8.089,1.829l3.137-9.926l5.832,1.604c0.406,0.111,0.834,0.075,1.231-0.068   c0.134-0.03,0.266-0.072,0.392-0.129l7.697-3.379c0.982-0.448,1.304-1.572,0.707-2.516C42.394,17.122,41.113,16.728,40.127,17.175z   "></path><path fill="#000000" d="M16.176,29.529c1.035-3.78,2.064-7.544,3.095-11.323c0.417-1.584,0.709-3.213,0.004-4.77   c-0.399-0.881-1.245-1.885-3.251-2.369c-1.651-0.397-2.796,0.189-3.321,0.563c-0.644,0.455-1.343,1.375-1.744,2.937   c-1.033,3.766-1.964,6.526-2.996,10.298c-0.435,1.592-0.404,3.281,0.002,4.746c0.383,1.386,1.094,2.566,2.062,3.285   c1.183,0.889,2.631,0.976,3.906,0.1C14.919,32.325,15.743,31.12,16.176,29.529z"></path></g><g display="none"><rect x="-274" y="-104" fill="none" width="359" height="190"></rect><path display="inline" fill="#000000" d="M57.475,21.015V24H59.8v5.876h-2.325v5.519h-7.695v-5.519h-8.059l-5.618,3.16   c0,0.132,0.002,0.263-0.013,0.401c0-0.001-0.026,0.273-0.026,0.273c-0.044,0.346-0.134,0.673-0.27,0.974l-3.034,9.674l-0.03,0.064   c-0.58,1.213-1.826,1.997-3.173,1.997c-0.479,0-0.941-0.098-1.376-0.29c-0.821-0.359-1.446-1.022-1.759-1.863   c-0.311-0.837-0.275-1.748,0.099-2.573l1.238-3.94l-0.07,0.016l-4.78,2.689l1.211,5.453c0.576,1.074,0.513,2.395-0.172,3.431   l-4.506,9.08L19.4,58.48C18.745,59.432,17.661,60,16.5,60c-0.664,0-1.307-0.189-1.858-0.546c-0.755-0.484-1.27-1.236-1.446-2.116   c-0.176-0.875,0.001-1.769,0.499-2.524l3.633-7.307l-0.774-3.474L1.5,52.5v7.147c0,3.232,2.62,5.853,5.852,5.853h52.297   c3.231,0,5.852-2.62,5.852-5.853V16.5L57.475,21.015z"></path><path display="inline" fill="#000000" d="M57.175,24.3V7.499H46.218l-6.5,8.763l0.007-0.003c0.39-0.176,0.823-0.269,1.277-0.269   c1.146,0,2.231,0.588,2.83,1.535c0.442,0.7,0.568,1.533,0.345,2.285c-0.222,0.745-0.748,1.34-1.482,1.675l-7.05,3.095v4.996h14.435   v5.519h7.096v-5.519H59.5V24.3H57.175z M50.079,24.3h-8.652l8.39-11.119h0.263V24.3z"></path></g><g display="none"><path display="inline" fill="#000000" d="M36.103,33.036c0,0.132,0.002,0.263-0.013,0.401c0-0.001-0.026,0.273-0.026,0.273   c-0.044,0.346-0.134,0.673-0.27,0.974l-3.034,9.674l-0.03,0.064c-0.58,1.213-1.826,1.997-3.173,1.997   c-0.479,0-0.941-0.098-1.376-0.29c-0.821-0.359-1.446-1.022-1.759-1.863c-0.311-0.837-0.275-1.748,0.099-2.573l1.238-3.94   l-0.07,0.016l-4.78,2.689l1.211,5.453c0.576,1.074,0.513,2.395-0.172,3.431l-4.506,9.08L19.4,58.48   C18.745,59.432,17.661,60,16.5,60c-0.664,0-1.307-0.189-1.858-0.546c-0.755-0.484-1.27-1.236-1.446-2.116   c-0.176-0.875,0.001-1.769,0.499-2.524l3.633-7.307l-0.774-3.474L1.5,52.5v7.147c0,3.232,2.62,5.853,5.852,5.853h52.297   c3.231,0,5.852-2.62,5.852-5.853V16.5L36.103,33.036z"></path><path display="inline" fill="#000000" d="M60.783,11.49l-5.258-5.258c-0.289-0.289-0.76-0.289-1.051,0l-2.365,2.366l-2.365-2.366   c-0.29-0.289-0.761-0.289-1.051,0l-5.257,5.258c-0.29,0.289-0.29,0.76,0,1.051l5.257,5.256c0.29,0.291,0.761,0.291,1.051,0   l2.365-2.365l2.365,2.365c0.291,0.291,0.762,0.291,1.051,0l5.258-5.256C61.072,12.25,61.072,11.779,60.783,11.49z"></path></g><g><path fill="#000000" d="M59.648,61.75h-9.296c-1.159,0-2.103-0.942-2.103-2.102V42.229c0-1.159,0.943-2.103,2.102-2.103h9.296   c1.159,0,2.103,0.942,2.103,2.102v17.419C61.75,60.807,60.807,61.75,59.648,61.75z"></path><path fill="#000000" d="M59.648,11.794h-9.296c-1.159,0-2.103-0.942-2.103-2.102v-2.34c0-1.159,0.943-2.103,2.102-2.103h9.296   c1.159,0,2.103,0.942,2.103,2.102v2.34C61.75,10.851,60.807,11.794,59.648,11.794z"></path><path fill="#000000" d="M59.648,22.962h-9.296c-1.159,0-2.103-0.942-2.103-2.102v-5.345c0-1.159,0.943-2.103,2.102-2.103h9.296   c1.159,0,2.103,0.942,2.103,2.102v5.345C61.75,22.019,60.807,22.962,59.648,22.962z"></path><path fill="#000000" d="M63,17.906v2.953c0,1.255-0.701,2.338-1.724,2.912C62.299,24.346,63,25.429,63,26.683v9.723   c0,1.255-0.701,2.338-1.724,2.912C62.299,39.893,63,40.975,63,42.229v17.419C63,61.496,61.496,63,59.648,63h-9.296   C48.504,63,47,61.496,47,59.648V42.229c0-1.255,0.701-2.338,1.724-2.912C47.701,38.742,47,37.66,47,36.406v-9.5l-10.897,6.13   c0,0.132,0.002,0.263-0.013,0.401c0-0.001-0.026,0.273-0.026,0.273c-0.044,0.346-0.134,0.673-0.27,0.974l-3.034,9.674l-0.03,0.064   c-0.58,1.213-1.826,1.997-3.173,1.997c-0.479,0-0.941-0.098-1.376-0.29c-0.821-0.359-1.446-1.022-1.759-1.863   c-0.311-0.837-0.275-1.748,0.099-2.573l1.238-3.94l-0.07,0.016l-4.78,2.689l1.211,5.453c0.576,1.074,0.513,2.395-0.172,3.431   l-4.506,9.08L19.4,58.48C18.745,59.432,17.661,60,16.5,60c-0.664,0-1.307-0.189-1.858-0.546c-0.755-0.484-1.27-1.236-1.446-2.116   c-0.176-0.875,0.001-1.769,0.499-2.524l3.633-7.307l-0.774-3.474L1.5,52.5v7.147c0,3.232,2.62,5.853,5.852,5.853h52.297   c3.231,0,5.852-2.62,5.852-5.853V16.5L63,17.906z"></path><path fill="#000000" d="M59.648,38.508h-9.296c-1.159,0-2.103-0.942-2.103-2.102v-9.723c0-1.159,0.943-2.103,2.102-2.103h9.296   c1.159,0,2.103,0.942,2.103,2.102v9.723C61.75,37.564,60.807,38.508,59.648,38.508z"></path></g></svg>