<svg xmlns="http://www.w3.org/2000/svg" xmlns:xlink="http://www.w3.org/1999/xlink" version="1.1" x="0px" y="0px" viewBox="0 0 67 67" enable-background="new 0 0 67 67" xml:space="preserve"><g><path fill="#000000" d="M21.122,15.695c1.94,1.381,4.634,0.93,6.011-1.012c1.376-1.945,0.926-4.637-1.017-6.02   c-1.946-1.377-4.635-0.92-6.016,1.02C18.724,11.627,19.179,14.314,21.122,15.695z"></path><path fill="#000000" d="M34.083,30.27l-6.119-3.237l-3.155-7.411c-0.298-1.248-1.373-2.263-2.78-2.459   c-1.343-0.187-2.604,0.433-3.258,1.468l-6.459,6.671c-0.28,0.289-0.447,0.664-0.51,1.063c-0.037,0.127-0.063,0.258-0.073,0.392   l-0.704,8.035c-0.075,1.032,0.722,1.821,1.791,1.755c1.063-0.066,1.984-0.962,2.062-1.998l0.604-6.895l2.064-2.135l-1.283,9.299   c-0.021,0.151-0.016,0.299-0.014,0.447l-2.06,11.792l-5.431,6.584c-0.954,0.868-1.016,2.31-0.134,3.217   c0.883,0.912,2.374,0.947,3.325,0.08l6.182-7.505c0.441-0.399,0.683-0.922,0.739-1.457c0.005-0.026,0.017-0.05,0.021-0.076   l0.307-1.751l1.429,10.789c0.18,1.312,1.39,2.224,2.703,2.038c1.299-0.186,2.208-1.395,2.035-2.7l-2.669-20.091   c0.045-0.15,0.091-0.3,0.113-0.46l1.125-8.171l0.632,1.485c0.158,0.37,0.439,0.67,0.783,0.884c0.103,0.083,0.213,0.156,0.331,0.218   l7.131,3.773c0.921,0.471,1.958,0.043,2.312-0.967C35.474,31.941,35.007,30.744,34.083,30.27z"></path></g><g display="none"><rect x="-106" y="-104" fill="none" width="359" height="190"></rect><path display="inline" fill="#000000" d="M24.993,45.893l1.362,10.251c0.244,1.846-1.05,3.56-2.885,3.822   C23.307,59.988,23.147,60,22.989,60c-1.683,0-3.125-1.259-3.354-2.927l-0.901-6.802l-6.06,7.356l-0.053,0.049   c-0.629,0.573-1.447,0.889-2.303,0.889c-0.924,0-1.781-0.359-2.414-1.013c-0.609-0.626-0.93-1.452-0.903-2.324   c0.027-0.865,0.39-1.67,1.026-2.274l2.459-2.981L1.5,52.5v7.147c0,3.232,2.62,5.853,5.852,5.853h52.297   c3.231,0,5.852-2.62,5.852-5.853V34.5L24.993,45.893z"></path><g display="inline"><path fill="#000000" d="M59.5,29.536v5.762H37.767V29.03c-0.013-1.913,0.236-3.409,0.748-4.487    c0.606-1.281,1.685-2.197,3.234-2.75c1.348-0.445,3.916-1.111,7.703-2.002c1.388-0.322,2.244-0.734,2.568-1.232    c0.256-0.363,0.384-1.085,0.384-2.163c0-1.267-0.183-2.083-0.546-2.446c-0.35-0.351-0.829-0.547-1.436-0.586    c-0.633-0.055-1.456-0.082-2.466-0.082c-1.024,0-1.738,0.121-2.143,0.365c-0.647,0.377-0.998,1.26-1.051,2.648    c-0.014,0.27-0.027,0.74-0.041,1.414h-6.853v-1.758c0-1.82,0.199-3.232,0.597-4.236c0.397-1.004,1.095-1.856,2.092-2.557    c1.092-0.769,2.365-1.24,3.821-1.416C45.671,7.58,47.06,7.5,48.542,7.5c3.167,0,5.445,0.297,6.833,0.89    c1.833,0.769,3.025,2.082,3.578,3.942c0.323,1.064,0.485,2.473,0.485,4.225c0,2.534-0.458,4.4-1.374,5.601    c-0.647,0.862-1.692,1.557-3.134,2.082c-1.429,0.525-3.929,1.192-7.5,2.001c-1.226,0.297-1.988,0.647-2.285,1.052    c-0.283,0.378-0.425,0.931-0.425,1.657v0.587H59.5z"></path></g></g><g display="none"><path display="inline" fill="#000000" d="M24.993,45.893l1.362,10.251c0.244,1.846-1.05,3.56-2.885,3.822   C23.307,59.988,23.147,60,22.989,60c-1.683,0-3.125-1.259-3.354-2.927l-0.901-6.802l-6.06,7.356l-0.053,0.049   c-0.629,0.573-1.447,0.889-2.303,0.889c-0.924,0-1.781-0.359-2.414-1.013c-0.609-0.626-0.93-1.452-0.903-2.324   c0.027-0.865,0.39-1.67,1.026-2.274l2.459-2.981L1.5,52.5v7.147c0,3.232,2.62,5.853,5.852,5.853h52.297   c3.231,0,5.852-2.62,5.852-5.853V34.5L24.993,45.893z"></path><path display="inline" fill="#000000" d="M61,17.016c0,0.552-0.448,1-1,1H50c-0.552,0-1-0.448-1-1v-10c0-0.553,0.448-1,1-1h10   c0.552,0,1,0.447,1,1V17.016z"></path></g><g><path fill="#000000" d="M59.648,61.75h-9.296c-1.159,0-2.103-0.942-2.103-2.102V42.229c0-1.159,0.943-2.103,2.102-2.103h9.296   c1.159,0,2.103,0.942,2.103,2.102v17.419C61.75,60.807,60.807,61.75,59.648,61.75z"></path><path fill="#000000" d="M59.648,11.794h-9.296c-1.159,0-2.103-0.942-2.103-2.102v-2.34c0-1.159,0.943-2.103,2.102-2.103h9.296   c1.159,0,2.103,0.942,2.103,2.102v2.34C61.75,10.851,60.807,11.794,59.648,11.794z M50.352,6.75c-0.332,0-0.602,0.271-0.602,0.603   v2.34c0,0.332,0.271,0.602,0.603,0.602h9.296c0.332,0,0.602-0.271,0.602-0.603v-2.34c0-0.332-0.271-0.602-0.603-0.602H50.352z"></path><path fill="#000000" d="M59.648,22.962h-9.296c-1.159,0-2.103-0.942-2.103-2.102v-5.345c0-1.159,0.943-2.103,2.102-2.103h9.296   c1.159,0,2.103,0.942,2.103,2.102v5.345C61.75,22.019,60.807,22.962,59.648,22.962z M50.352,14.913   c-0.332,0-0.602,0.271-0.602,0.603v5.345c0,0.332,0.271,0.602,0.603,0.602h9.296c0.332,0,0.602-0.271,0.602-0.603v-5.345   c0-0.332-0.271-0.602-0.603-0.602H50.352z"></path><path fill="#000000" d="M63,35.203v1.202c0,1.255-0.701,2.338-1.724,2.912C62.299,39.893,63,40.975,63,42.229v17.419   C63,61.496,61.497,63,59.648,63h-9.296C48.504,63,47,61.496,47,59.648V42.229c0-1.257,0.704-2.337,1.731-2.908   c-0.042-0.023-0.086-0.044-0.127-0.069l-23.611,6.641l1.362,10.251c0.244,1.846-1.05,3.56-2.885,3.822   C23.307,59.988,23.147,60,22.989,60c-1.683,0-3.125-1.259-3.354-2.927l-0.901-6.802l-6.06,7.356l-0.053,0.049   c-0.629,0.573-1.447,0.889-2.303,0.889c-0.924,0-1.781-0.359-2.414-1.013c-0.609-0.626-0.93-1.452-0.903-2.324   c0.027-0.865,0.39-1.67,1.026-2.274l2.459-2.981L1.5,52.5v7.147c0,3.232,2.62,5.853,5.852,5.853h52.297   c3.231,0,5.852-2.62,5.852-5.853V34.5L63,35.203z"></path><path fill="#000000" d="M59.648,38.508h-9.296c-1.159,0-2.103-0.942-2.103-2.102v-9.723c0-1.159,0.943-2.103,2.102-2.103h9.296   c1.159,0,2.103,0.942,2.103,2.102v9.723C61.75,37.564,60.807,38.508,59.648,38.508z"></path></g></svg>